<?xml version="1.0" encoding="UTF-8" standalone="no"?>
<!DOCTYPE svg PUBLIC "-//W3C//DTD SVG 1.0//EN" "http://www.w3.org/TR/2001/PR-SVG-20010719/DTD/svg10.dtd">
<svg width="22cm" height="21cm" viewBox="32 33 439 408" xmlns="http://www.w3.org/2000/svg" xmlns:xlink="http://www.w3.org/1999/xlink">
  <defs/>
  <g id="Background">
    <rect style="fill: #ffffff; fill-opacity: 1; stroke-opacity: 1; stroke-width: 2; stroke: #000000" x="34" y="34" width="164" height="80" rx="0" ry="0"/>
    <text font-size="12.7998" style="fill: #000000; fill-opacity: 1; stroke: none;text-anchor:middle;font-family:sans-serif;font-style:normal;font-weight:normal" x="116" y="74">
      <tspan x="116" y="74">User device</tspan>
      <tspan x="116" y="90">(bootstrapped with PAC)</tspan>
    </text>
    <rect style="fill: #ffffff; fill-opacity: 1; stroke-opacity: 1; stroke-width: 2; stroke: #000000" x="36" y="193" width="163" height="82" rx="0" ry="0"/>
    <text font-size="12.7998" style="fill: #000000; fill-opacity: 1; stroke: none;text-anchor:middle;font-family:sans-serif;font-style:normal;font-weight:normal" x="117.5" y="234">
      <tspan x="117.5" y="234">Forward proxy</tspan>
      <tspan x="117.5" y="250">(identity-aware)</tspan>
    </text>
    <g>
      <line style="fill: none; stroke-opacity: 1; stroke-width: 2; stroke: #000000" x1="116" y1="114" x2="117.315" y2="183.266"/>
      <polygon style="fill: #000000; fill-opacity: 1; stroke-opacity: 1; stroke-width: 2; stroke: #000000" fill-rule="evenodd" points="117.458,190.764 112.269,180.861 117.315,183.266 122.267,180.671 "/>
    </g>
    <text font-size="12.7998" style="fill: #000000; fill-opacity: 1; stroke: none;text-anchor:start;font-family:sans-serif;font-style:normal;font-weight:normal" x="132" y="148">
      <tspan x="132" y="148">Redirect if not</tspan>
      <tspan x="132" y="164">authenticated (1)</tspan>
    </text>
    <rect style="fill: #ffffff; fill-opacity: 1; stroke-opacity: 1; stroke-width: 2; stroke: #000000" x="309.324" y="106" width="160" height="60" rx="0" ry="0"/>
    <text font-size="12.7998" style="fill: #000000; fill-opacity: 1; stroke: none;text-anchor:middle;font-family:sans-serif;font-style:normal;font-weight:normal" x="389.324" y="136">
      <tspan x="389.324" y="136">accounts.google.com</tspan>
    </text>
    <g>
      <line style="fill: none; stroke-opacity: 1; stroke-width: 2; stroke: #000000" x1="207.656" y1="229.543" x2="320.82" y2="171.273"/>
      <polygon style="fill: #000000; fill-opacity: 1; stroke-opacity: 1; stroke-width: 2; stroke: #000000" fill-rule="evenodd" points="200.988,232.976 207.59,223.953 207.656,229.543 212.168,232.844 "/>
      <polygon style="fill: #000000; fill-opacity: 1; stroke-opacity: 1; stroke-width: 2; stroke: #000000" fill-rule="evenodd" points="327.488,167.84 320.887,176.863 320.82,171.273 316.309,167.973 "/>
    </g>
    <text font-size="12.7998" style="fill: #000000; fill-opacity: 1; stroke: none;text-anchor:start;font-family:sans-serif;font-style:normal;font-weight:normal" x="263.324" y="216">
      <tspan x="263.324" y="216">Internal state sync (3)</tspan>
    </text>
    <rect style="fill: #ffffff; fill-opacity: 1; stroke-opacity: 1; stroke-width: 2; stroke: #000000" x="33" y="348" width="121" height="91" rx="0" ry="0"/>
    <text font-size="12.7998" style="fill: #000000; fill-opacity: 1; stroke: none;text-anchor:middle;font-family:sans-serif;font-style:normal;font-weight:normal" x="93.5" y="393.5">
      <tspan x="93.5" y="393.5">Service A</tspan>
    </text>
    <rect style="fill: #ffffff; fill-opacity: 1; stroke-opacity: 1; stroke-width: 2; stroke: #000000" x="177.8" y="347" width="121" height="91" rx="0" ry="0"/>
    <text font-size="12.7998" style="fill: #000000; fill-opacity: 1; stroke: none;text-anchor:middle;font-family:sans-serif;font-style:normal;font-weight:normal" x="238.3" y="392.5">
      <tspan x="238.3" y="392.5">Service B</tspan>
    </text>
    <g>
      <line style="fill: none; stroke-opacity: 1; stroke-width: 2; stroke: #000000" x1="108.657" y1="276.005" x2="95.5057" y2="338.473"/>
      <polygon style="fill: #000000; fill-opacity: 1; stroke-opacity: 1; stroke-width: 2; stroke: #000000" fill-rule="evenodd" points="93.9607,345.812 91.128,334.996 95.5057,338.473 100.914,337.056 "/>
    </g>
    <g>
      <line style="fill: none; stroke-opacity: 1; stroke-width: 2; stroke: #000000" x1="162.402" y1="276.003" x2="231.19" y2="340.349"/>
      <polygon style="fill: #000000; fill-opacity: 1; stroke-opacity: 1; stroke-width: 2; stroke: #000000" fill-rule="evenodd" points="236.667,345.472 225.948,342.293 231.19,340.349 232.78,334.99 "/>
    </g>
    <text font-size="12.7998" style="fill: #000000; fill-opacity: 1; stroke: none;text-anchor:start;font-family:sans-serif;font-style:normal;font-weight:normal" x="230" y="306">
      <tspan x="230" y="306">Secure traffic with LOAS</tspan>
      <tspan x="230" y="322">(internal Google protocol)</tspan>
    </text>
    <g>
      <line style="fill: none; stroke-opacity: 1; stroke-width: 2; stroke: #000000" x1="200" y1="70" x2="300.989" y2="130.968"/>
      <polygon style="fill: #000000; fill-opacity: 1; stroke-opacity: 1; stroke-width: 2; stroke: #000000" fill-rule="evenodd" points="307.41,134.844 296.265,133.957 300.989,130.968 301.433,125.396 "/>
    </g>
    <text font-size="12.7998" style="fill: #000000; fill-opacity: 1; stroke: none;text-anchor:start;font-family:sans-serif;font-style:normal;font-weight:normal" x="234" y="75">
      <tspan x="234" y="75">Submit user/password (2)</tspan>
    </text>
  </g>
</svg>
